<svg width="56" height="56" viewBox="0 0 56 56" fill="none" xmlns="http://www.w3.org/2000/svg">
<g filter="url(#filter0_d_964_18511)">
<g clip-path="url(#clip0_964_18511)">
<path opacity="0.15" d="M47.6503 13.75H8.35031C8.33231 13.75 8.32031 13.7619 8.32031 13.7796V19.1849C8.32031 22.7291 11.2603 25.6037 14.8783 25.6037C17.3203 25.6037 19.4503 24.2998 20.5843 22.3617C20.7583 22.0594 21.0883 21.8698 21.4423 21.8698C21.7963 21.8698 22.1203 22.0594 22.3003 22.3617C23.4283 24.2998 25.5583 25.6037 28.0003 25.6037C30.4483 25.6037 32.5843 24.2938 33.7063 22.3498C33.8803 22.0535 34.1983 21.8698 34.5403 21.8698H34.5763C34.9243 21.8698 35.2363 22.0535 35.4103 22.3498C36.5383 24.2938 38.6743 25.6037 41.1223 25.6037C44.7403 25.6037 47.6803 22.7291 47.6803 19.1849V13.7796C47.6803 13.7619 47.6683 13.75 47.6503 13.75Z" fill="#0D5C63"/>
<path d="M50.2 9.48885V1.89659C50.2 0.847537 49.342 0 48.28 0H7.72003C6.65804 0 5.80004 0.847537 5.80004 1.89659V9.48885C4.79804 9.54812 4.00004 10.372 4.00004 11.3795V19.1851C3.99619 20.6197 4.29025 22.0398 4.86404 23.3576C5.12204 23.9622 5.44004 24.5311 5.80004 25.0705V45.518C5.80004 46.5612 6.65804 47.4146 7.72003 47.4146H48.28C49.342 47.4146 50.2 46.5671 50.2 45.518V25.0705C50.5657 24.5298 50.879 23.9563 51.136 23.3576C51.706 22.036 52 20.6313 52 19.1851V11.3795C52 10.372 51.202 9.54812 50.2 9.48885ZM10.12 4.26732H45.88V9.48293H10.12V4.26732ZM31.84 43.1532H24.16V36.9834H31.84V43.1532ZM45.904 43.1532H35.68V35.0868C35.68 34.0378 34.822 33.1902 33.76 33.1902H22.24C21.178 33.1902 20.32 34.0378 20.32 35.0868V43.1532H10.12V28.7985C10.294 28.8814 10.474 28.9644 10.66 29.0355C11.998 29.5927 13.42 29.8712 14.884 29.8712C16.348 29.8712 17.764 29.5927 19.108 29.0355C19.936 28.6918 20.716 28.2532 21.43 27.7257C21.442 27.7198 21.454 27.7198 21.466 27.7257C22.1822 28.2554 22.9622 28.6954 23.788 29.0355C25.126 29.5927 26.548 29.8712 28.012 29.8712C29.476 29.8712 30.892 29.5927 32.236 29.0355C33.064 28.6918 33.844 28.2532 34.558 27.7257C34.57 27.7198 34.582 27.7198 34.594 27.7257C35.3102 28.2554 36.0902 28.6954 36.916 29.0355C38.254 29.5927 39.676 29.8712 41.14 29.8712C42.604 29.8712 44.02 29.5927 45.364 29.0355C45.544 28.9585 45.724 28.8814 45.904 28.7985V43.1532ZM47.68 19.1851C47.68 22.7294 44.74 25.6039 41.122 25.6039C38.674 25.6039 36.538 24.2941 35.41 22.3501C35.236 22.0537 34.924 21.87 34.576 21.87H34.54C34.198 21.87 33.88 22.0537 33.706 22.3501C33.1304 23.3417 32.2992 24.1652 31.297 24.7367C30.2948 25.3082 29.1572 25.6074 28 25.6039C25.558 25.6039 23.428 24.3 22.3 22.3619C22.12 22.0597 21.796 21.87 21.442 21.87C21.088 21.87 20.758 22.0597 20.584 22.3619C20.005 23.3498 19.1728 24.1695 18.1711 24.7387C17.1694 25.3078 16.0336 25.6062 14.878 25.6039C11.26 25.6039 8.32003 22.7294 8.32003 19.1851V13.7799C8.32003 13.7621 8.33203 13.7502 8.35003 13.7502H47.65C47.668 13.7502 47.68 13.7621 47.68 13.7799V19.1851Z" fill="#0D5C63"/>
</g>
</g>
<defs>
<filter id="filter0_d_964_18511" x="0" y="0" width="56" height="56" filterUnits="userSpaceOnUse" color-interpolation-filters="sRGB">
<feFlood flood-opacity="0" result="BackgroundImageFix"/>
<feColorMatrix in="SourceAlpha" type="matrix" values="0 0 0 0 0 0 0 0 0 0 0 0 0 0 0 0 0 0 127 0" result="hardAlpha"/>
<feOffset dy="4"/>
<feGaussianBlur stdDeviation="2"/>
<feComposite in2="hardAlpha" operator="out"/>
<feColorMatrix type="matrix" values="0 0 0 0 0 0 0 0 0 0 0 0 0 0 0 0 0 0 0.25 0"/>
<feBlend mode="normal" in2="BackgroundImageFix" result="effect1_dropShadow_964_18511"/>
<feBlend mode="normal" in="SourceGraphic" in2="effect1_dropShadow_964_18511" result="shape"/>
</filter>
<clipPath id="clip0_964_18511">
<rect width="48" height="47.4146" fill="white" transform="translate(4)"/>
</clipPath>
</defs>
</svg>
